<?xml version="1.0" encoding="UTF-8"?>
<svg version="1.1" xmlns="http://www.w3.org/2000/svg" width="960" height="960">
<path d="M0 0 C2.17782102 -0.00258628 4.35564156 -0.00560017 6.53346145 -0.0090034 C12.50317975 -0.01704604 18.472886 -0.01886145 24.44260907 -0.01960087 C30.88740182 -0.02145625 37.33218838 -0.02900611 43.77697754 -0.03573608 C58.59859575 -0.05027562 73.42021265 -0.05584395 88.24183671 -0.06042803 C95.57560879 -0.06276792 102.90938008 -0.06637105 110.24315154 -0.07012341 C135.37642569 -0.0829572 160.50969941 -0.09367545 185.64297676 -0.09712601 C187.21939957 -0.09734764 188.79582238 -0.09756942 190.37224519 -0.09779136 C191.95235311 -0.09801199 193.53246104 -0.09823248 195.11256897 -0.09845281 C198.28222982 -0.09889534 201.45189067 -0.09934246 204.62155151 -0.09979248 C205.40743742 -0.09990187 206.19332332 -0.10001126 207.00302394 -0.10012397 C232.46073806 -0.10375112 257.91842364 -0.11965914 283.37612684 -0.14298284 C310.32817744 -0.1676302 337.28021174 -0.18130116 364.23227394 -0.18249393 C367.19635193 -0.18266536 370.16042992 -0.18288078 373.1245079 -0.18312836 C374.21916692 -0.18321201 374.21916692 -0.18321201 375.33594025 -0.18329735 C387.03422112 -0.18444367 398.73247249 -0.19542994 410.43074342 -0.21001541 C422.21106665 -0.22444809 433.99134924 -0.22732891 445.77167894 -0.21957543 C452.14232764 -0.21568713 458.51287801 -0.21650891 464.8835144 -0.23063278 C470.73301077 -0.24348175 476.58233604 -0.24207899 482.43183254 -0.23004207 C484.53085959 -0.2281039 486.62989923 -0.23107467 488.72890867 -0.23988643 C548.31064296 -0.47386862 605.33570899 19.63090291 649.04098511 60.64434814 C651.32742859 62.77104012 653.6544497 64.8111675 656.03707886 66.82794189 C659.23738784 69.61509623 662.03820182 72.57983784 664.77145386 75.82403564 C666.19080989 77.5073919 667.64342237 79.16288051 669.11520386 80.80059814 C704.65437519 120.70166665 723.96738978 174.95654845 723.84762669 228.12890911 C723.84878053 229.39943979 723.84993437 230.66997048 723.85112318 231.97900209 C723.85417312 235.49103832 723.85103308 239.0030453 723.84684505 242.51507933 C723.84339535 246.34129772 723.84578459 250.1675133 723.84742254 253.99373227 C723.84949212 260.69461951 723.84785961 267.39549785 723.84378433 274.09638405 C723.83774144 284.06030769 723.83744926 294.02422574 723.83832632 303.98815088 C723.83963935 320.7502473 723.83630213 337.51233977 723.83030891 354.27443504 C723.82439063 370.86951911 723.82054271 387.46460154 723.8194561 404.05968666 C723.81938736 405.09175888 723.81931862 406.12383109 723.8192478 407.18717822 C723.81890946 412.42861314 723.81860808 417.67004805 723.81832092 422.91148297 C723.81622086 460.03052834 723.80948447 497.14957156 723.80001831 534.26861572 C723.79083304 570.3278604 723.78374983 606.38710449 723.7795105 642.4463501 C723.77931321 644.1137874 723.77931321 644.1137874 723.77911193 645.8149103 C723.77779341 656.97836742 723.77651759 668.14182455 723.77527307 679.30528168 C723.7727369 702.04625898 723.76991565 724.78723625 723.766922 747.5282135 C723.76678471 748.57379256 723.76664742 749.61937162 723.76650597 750.69663489 C723.75730627 820.51123812 723.74146118 890.32584015 723.72457886 960.14044189 C652.53241494 960.19187891 581.34024878 960.23957481 510.14807129 960.26747131 C509.09380539 960.26788548 508.03953949 960.26829966 506.95332613 960.26872638 C484.03932212 960.27770585 461.1253179 960.28601629 438.21131339 960.29363788 C426.97371043 960.29737978 415.73610752 960.30126945 404.49850464 960.30523682 C403.38024932 960.30562909 402.261994 960.30602137 401.10985215 960.30642554 C364.88726271 960.31920143 328.66468733 960.34172928 292.44210641 960.36933356 C255.20761632 960.39765734 217.97313402 960.41610426 180.73863335 960.42218686 C175.47521665 960.42305128 170.21179999 960.42402819 164.94838333 960.42507362 C163.394564 960.42537703 163.394564 960.42537703 161.80935438 960.42568656 C145.15851688 960.42922679 128.50770351 960.44312767 111.85687583 960.460938 C95.10266753 960.47863653 78.34848306 960.48533663 61.59426574 960.48094603 C51.64970417 960.4786705 41.70523004 960.4846918 31.76068432 960.50283452 C25.10384395 960.5141454 18.44706035 960.51439017 11.79021595 960.50593734 C8.0061256 960.50144023 4.22219975 960.50146808 0.43812756 960.51509144 C-20.36036283 960.5856122 -40.52000486 959.5114898 -60.77542114 954.45294189 C-62.32567993 954.07057373 -62.32567993 954.07057373 -63.90725708 953.68048096 C-112.26134446 941.31495357 -158.04360165 912.12753276 -187.96194458 871.88946533 C-189.25140235 870.17242528 -190.57470817 868.48745105 -191.90823364 866.80450439 C-212.59867193 840.26149798 -225.70304599 807.87237126 -232.52542114 775.07794189 C-232.67672485 774.36017578 -232.82802856 773.64240967 -232.98391724 772.90289307 C-236.12363136 756.66329824 -236.56882875 740.34624393 -236.53611755 723.86502075 C-236.53914494 721.67616971 -236.54303735 719.48731972 -236.54771012 717.29847157 C-236.55792328 711.33541037 -236.55582547 705.37240974 -236.55152953 699.40934372 C-236.54905005 692.95787165 -236.5580916 686.5064137 -236.56556702 680.0549469 C-236.57870258 667.43522121 -236.58011733 654.81551458 -236.57776675 642.19578342 C-236.5759286 631.93138385 -236.57770461 621.6669905 -236.5819912 611.40259171 C-236.58259362 609.92388015 -236.58319482 608.4451686 -236.5837948 606.96645705 C-236.58470213 604.73771357 -236.5856108 602.50897009 -236.58652715 600.28022662 C-236.59494772 579.57809795 -236.59929862 558.87597162 -236.59512043 538.17384148 C-236.59496405 537.39462744 -236.59480768 536.61541341 -236.59464656 535.81258683 C-236.59384087 531.86392393 -236.5929951 527.91526103 -236.59213326 523.96659814 C-236.59196217 523.18249157 -236.59179109 522.39838499 -236.59161481 521.59051762 C-236.59126815 520.00486611 -236.59091962 518.41921461 -236.59056923 516.83356311 C-236.58521458 492.17249554 -236.59313884 467.51146374 -236.61160278 442.85040283 C-236.63236148 415.09240293 -236.64303808 387.33442518 -236.6390273 359.57641709 C-236.638632 356.61134029 -236.63827045 353.64626348 -236.63792992 350.68118668 C-236.63783918 349.95120285 -236.63774845 349.22121903 -236.63765497 348.46911449 C-236.63649348 337.4933964 -236.64310305 326.51770084 -236.65374184 315.54198837 C-236.66584344 303.0449971 -236.66702024 290.54805863 -236.65495167 278.05106644 C-236.64908805 271.68441532 -236.64789338 265.3178603 -236.65995407 258.95121574 C-236.67089808 253.10573533 -236.66760955 247.26043028 -236.65369239 241.41495778 C-236.65106867 239.31751746 -236.65333733 237.22006301 -236.66142825 235.12263666 C-236.79429523 198.06161102 -229.44855086 162.54986069 -213.27542114 129.14044189 C-212.91109985 128.38053955 -212.54677856 127.62063721 -212.17141724 126.83770752 C-203.34098395 108.63705553 -191.83625087 92.13212841 -178.27542114 77.14044189 C-177.48023071 76.25485596 -177.48023071 76.25485596 -176.66897583 75.35137939 C-170.53869271 68.54865083 -164.41370782 61.90312124 -157.27542114 56.14044189 C-156.21267656 55.2540163 -155.15020269 54.36726609 -154.08792114 53.48028564 C-119.05051945 24.51914717 -77.4073765 6.64410522 -32.27542114 1.14044189 C-31.5868179 1.05238572 -30.89821467 0.96432955 -30.18874466 0.87360501 C-20.15804574 -0.2253699 -10.07600573 -0.004791 0 0 Z " fill="#74AA9C" transform="translate(236.27542114257813,-0.14044189453125)"/>
<path d="M0 0 C4.41988761 3.90880088 8.73774974 7.92032767 13 12 C13.92232422 12.85078125 13.92232422 12.85078125 14.86328125 13.71875 C16 15 16 15 16 17 C16.68698975 16.87882812 17.37397949 16.75765625 18.08178711 16.6328125 C67.7989665 8.0615955 116.90922598 16.17262103 159 45 C168.29116172 51.60922498 176.74579825 59.15479023 185 67 C185.63164063 67.57878906 186.26328125 68.15757812 186.9140625 68.75390625 C218.82516242 98.92577561 236.83233614 145.72116619 238.21484375 188.9296875 C238.60016786 207.47681238 237.26928972 227.39897944 231.27856445 245.13598633 C229.8900616 249.53497288 229.8900616 249.53497288 230.82055664 253.89892578 C232.20734468 255.79669087 233.69806216 257.47942054 235.3125 259.1875 C236.44764311 260.49704073 237.57778933 261.8109281 238.703125 263.12890625 C239.54907227 264.10561279 239.54907227 264.10561279 240.41210938 265.10205078 C269.07698971 299.36416328 278.79195611 347.43571018 275.79785156 390.93701172 C271.74880399 433.42145235 252.20490483 472.40638933 223 503 C221.78183594 504.29744141 221.78183594 504.29744141 220.5390625 505.62109375 C199.30659112 527.64377038 166.59528675 547.18806101 136.00390625 551.78125 C133.83420135 552.16682541 133.83420135 552.16682541 132 553 C130.39180597 555.63756976 129.69524097 557.24334469 128.9375 560.125 C128.47398009 561.58324259 128.00235906 563.03893037 127.5234375 564.4921875 C127.28206055 565.23952148 127.04068359 565.98685547 126.79199219 566.75683594 C124.54610054 573.11788786 121.17209004 579.0625392 118 585 C117.45730469 586.02609375 116.91460938 587.0521875 116.35546875 588.109375 C108.77196253 601.76337647 98.79765876 613.79021686 88 625 C87.31035156 625.7528125 86.62070312 626.505625 85.91015625 627.28125 C74.85106504 638.99836775 61.08930893 648.31058055 47 656 C46.37303223 656.34369629 45.74606445 656.68739258 45.10009766 657.04150391 C30.40123998 664.98955407 14.71102399 671.02478395 -1.65551758 674.49169922 C-3.45707712 674.88229038 -5.24984774 675.31359195 -7.0378418 675.76220703 C-17.49786719 678.1879494 -27.6573438 678.46065145 -38.36889648 678.39111328 C-41.29784115 678.37508024 -44.22539472 678.39101791 -47.15429688 678.41015625 C-62.06099499 678.42703146 -76.50290568 676.98125212 -90.875 672.8125 C-91.60219238 672.60383301 -92.32938477 672.39516602 -93.07861328 672.18017578 C-122.7782721 663.33279709 -153.54989535 646.81948459 -174 623 C-174.70626516 621.68721222 -175.38345538 620.35723799 -176 619 C-176.60021973 619.12117187 -177.20043945 619.24234375 -177.81884766 619.3671875 C-227.02758038 628.99598939 -275.96541348 619.77044664 -317.77587891 591.8125 C-321.30826274 589.35741332 -324.66834391 586.71877883 -328 584 C-328.78383057 583.36626465 -328.78383057 583.36626465 -329.58349609 582.71972656 C-351.84955076 564.64547288 -368.95393185 543.00643396 -381 517 C-381.53367187 515.87207031 -382.06734375 514.74414062 -382.6171875 513.58203125 C-399.49334567 476.28834494 -404.5230701 430.2322854 -391.2746582 391.11108398 C-390.05328766 387.18270178 -389.75217553 385.49033841 -391.640625 381.75390625 C-392.41921875 380.84511719 -393.1978125 379.93632813 -394 379 C-394.90298828 377.87078125 -394.90298828 377.87078125 -395.82421875 376.71875 C-396.74654297 375.62046875 -396.74654297 375.62046875 -397.6875 374.5 C-411.41214893 357.42663821 -421.15415352 337.71958433 -428 317 C-428.58201172 315.30423828 -428.58201172 315.30423828 -429.17578125 313.57421875 C-437.44620676 287.42179214 -439.70852473 255.81836186 -433.453125 228.95654297 C-432.9806719 226.91654344 -432.56608258 224.86983826 -432.15625 222.81640625 C-426.18974009 194.09267711 -412.51296959 165.93428699 -393 144 C-392.27296875 143.1646875 -391.5459375 142.329375 -390.796875 141.46875 C-366.8631985 114.35507452 -333.27431488 90.68211064 -297 84 C-295.33380554 83.9603287 -293.66591541 83.94996367 -292 84 C-291.86464844 83.46375 -291.72929687 82.9275 -291.58984375 82.375 C-279.58390747 38.66476492 -245.82299671 2.31468784 -207.421875 -20.12109375 C-193.25347367 -28.12236798 -177.79271211 -34.13201197 -162 -38 C-160.91074219 -38.27457031 -159.82148438 -38.54914063 -158.69921875 -38.83203125 C-103.56969445 -51.74009749 -42.83620193 -37.01970549 0 0 Z " fill="#FEFEFE" transform="translate(560,162)"/>
<path d="M0 0 C2.21832524 -0.00965539 4.43570151 -0.04074023 6.65380859 -0.07226562 C19.68924261 -0.17019323 31.91117759 1.83834619 44.24365234 6.24023438 C45.0706665 6.53438232 45.89768066 6.82853027 46.74975586 7.1315918 C62.05494467 12.80832615 76.24393914 20.578943 88.61865234 31.24023438 C89.98570312 32.40039062 89.98570312 32.40039062 91.38037109 33.58398438 C110.63765413 50.39452742 124.88088472 73.60170278 131.61865234 98.24023438 C131.92287109 99.34238281 132.22708984 100.44453125 132.54052734 101.58007812 C134.58408642 109.37837668 135.74445588 116.81014723 135.75146484 124.89648438 C135.75289993 125.95542908 135.75289993 125.95542908 135.75436401 127.0357666 C135.75504002 128.5181487 135.75322647 130.00053386 135.74902344 131.48291016 C135.7436669 133.734118 135.74898819 135.98512638 135.75537109 138.23632812 C135.75471021 139.68554731 135.75342883 141.13476637 135.75146484 142.58398438 C135.75033691 143.88529297 135.74920898 145.18660156 135.74804688 146.52734375 C135.62013106 150.19780356 135.20749987 153.62177509 134.61865234 157.24023438 C130.80903171 155.81602837 127.37461266 154.06114554 123.84912109 152.03710938 C122.72554199 151.39378662 121.60196289 150.75046387 120.44433594 150.08764648 C119.23153513 149.38863565 118.01880915 148.68949498 116.80615234 147.99023438 C115.54405256 147.26551958 114.28184403 146.54099413 113.01953125 145.81665039 C104.17588872 140.73648874 95.35997268 135.60897834 86.55639648 130.4597168 C76.03120486 124.30399796 65.46643254 118.21744545 54.90087891 112.13134766 C50.55350134 109.62652866 46.20758845 107.11917548 41.86181641 104.61157227 C39.70502356 103.36708136 37.54812303 102.12277704 35.39111328 100.87866211 C29.84820801 97.68157261 24.30660954 94.48224936 18.76708984 91.27929688 C4.4989107 83.02901476 4.4989107 83.02901476 -9.81884766 74.86523438 C-10.45709473 74.50187988 -11.0953418 74.13852539 -11.75292969 73.76416016 C-18.36385172 70.04263358 -23.85873215 69.25564406 -31.38134766 70.24023438 C-36.37682685 71.9883331 -40.82697779 74.5855374 -45.38134766 77.24023438 C-46.22181641 77.72331055 -47.06228516 78.20638672 -47.92822266 78.70410156 C-52.93707426 81.58525243 -57.92659324 84.49785788 -62.90478516 87.43164062 C-69.33308285 91.21922395 -75.79056138 94.95459546 -82.25634766 98.67773438 C-83.33561523 99.29970703 -84.41488281 99.92167969 -85.52685547 100.5625 C-87.71749731 101.82490377 -89.90825266 103.0871106 -92.09912109 104.34912109 C-97.52794704 107.47703583 -102.95456772 110.60877168 -108.38134766 113.74023438 C-114.9036804 117.50387357 -121.42648528 121.26668059 -127.95166016 125.02539062 C-138.44367085 131.07078727 -148.92598205 137.13164607 -159.38134766 143.24023438 C-168.03977094 148.29615834 -176.70437939 153.34121099 -185.38134766 158.36523438 C-187.00169922 159.30689453 -187.00169922 159.30689453 -188.65478516 160.26757812 C-189.67830078 160.85925781 -190.70181641 161.4509375 -191.75634766 162.06054688 C-193.09826172 162.83809326 -193.09826172 162.83809326 -194.46728516 163.63134766 C-198.05286615 165.6109873 -201.70639406 167.43331957 -205.38134766 169.24023438 C-205.77671584 160.15694441 -206.07797126 151.07664498 -206.26215458 141.98660469 C-206.3506037 137.76433013 -206.47028478 133.54796954 -206.66381836 129.32910156 C-207.87504452 102.21165714 -207.87504452 102.21165714 -203.86032104 95.81787109 C-200.01705401 92.1471483 -195.59848359 90.45005016 -190.56863403 88.94891357 C-187.38190823 87.91641673 -184.71146117 86.23831155 -181.87744141 84.47460938 C-179.85825008 83.31256019 -177.83871528 82.15110762 -175.81884766 80.99023438 C-167.32444827 76.09936896 -158.84368815 71.18635914 -150.38134766 66.24023438 C-138.83133169 59.49138659 -127.24648805 52.80388412 -115.65478516 46.12695312 C-111.34334744 43.64195979 -107.03478384 41.15200725 -102.72631836 38.66186523 C-99.50255684 36.80054565 -96.27604745 34.94405654 -93.04931641 33.08789062 C-89.00978976 30.76268503 -84.97978457 28.42244176 -80.95933533 26.0644989 C-63.64043708 15.91465665 -47.38343291 7.07406371 -27.60009766 2.96679688 C-24.54030752 2.5772129 -24.54030752 2.5772129 -23.38134766 1.24023438 C-15.62326005 0.03609661 -7.83299734 0.02051866 0 0 Z " fill="#74AA9C" transform="translate(614.38134765625,222.759765625)"/>
<path d="M0 0 C0.51262325 9.03061246 0.90192061 18.05614878 1.13986778 27.09819317 C1.25417187 31.29899798 1.40859541 35.48978475 1.65966797 39.68481445 C3.2314459 66.65211954 3.2314459 66.65211954 -2.02490234 73.7244873 C-7.15752706 78.17466671 -12.97692966 80.70045979 -19.31732178 82.99343872 C-22.82737485 84.31043734 -25.74284564 86.04200144 -28.921875 88.0234375 C-30.86388489 89.14183867 -32.80658406 90.25904388 -34.75 91.375 C-36.95314392 92.64319629 -39.15626835 93.91142645 -41.359375 95.1796875 C-42.45701172 95.81100586 -43.55464844 96.44232422 -44.68554688 97.09277344 C-50.12650565 100.22364924 -55.56305248 103.36216542 -61 106.5 C-63.16664498 107.75003758 -65.33331166 109.00003756 -67.5 110.25 C-68.5725 110.86875 -69.645 111.4875 -70.75 112.125 C-74 114 -77.25 115.875 -80.5 117.75 C-81.57290283 118.3689917 -82.64580566 118.9879834 -83.7512207 119.62573242 C-85.91378583 120.8733474 -88.07638339 122.12090616 -90.23901367 123.3684082 C-96.82935737 127.17012865 -103.41852086 130.97388338 -110.0065918 134.77954102 C-113.26579386 136.6605442 -116.52737063 138.53738095 -119.7890625 140.4140625 C-123.79635768 142.72151898 -127.79023909 145.04965303 -131.7734375 147.3984375 C-146.52435793 156.05524711 -160.66320055 161.93677016 -177.2734375 166.01953125 C-180.7738188 166.60584694 -180.7738188 166.60584694 -182 168 C-186.93014462 168.8810956 -191.78070083 169.17186288 -196.77734375 169.203125 C-197.50635391 169.20882507 -198.23536407 169.21452515 -198.98646545 169.22039795 C-200.52522356 169.22979419 -202.06400129 169.23636038 -203.6027832 169.24023438 C-205.9002845 169.24984434 -208.19685217 169.28087801 -210.49414062 169.3125 C-223.74845532 169.40832098 -236.42425245 167.68747117 -249 163.3125 C-249.74290283 163.05758789 -250.48580566 162.80267578 -251.2512207 162.54003906 C-268.09500046 156.55288813 -283.87690313 147.34512018 -296.8515625 135.0078125 C-299.01686525 132.93076292 -299.01686525 132.93076292 -301.57421875 130.953125 C-320.96860325 115.33767854 -334.03954194 86.79872943 -339 63 C-339.25704712 61.89785156 -339.25704712 61.89785156 -339.51928711 60.7734375 C-341.17001101 53.00325994 -341.27366651 45.35682086 -341.20581055 37.45556641 C-341.18741526 35.23979271 -341.18530257 33.02443638 -341.18554688 30.80859375 C-341.1636896 24.44158185 -341.01603796 18.28980706 -340 12 C-336.21481268 13.4160506 -332.80250679 15.15421065 -329.30078125 17.16796875 C-328.18751465 17.80613525 -327.07424805 18.44430176 -325.92724609 19.10180664 C-324.72228318 19.79695534 -323.5173691 20.4921887 -322.3125 21.1875 C-321.05565201 21.90968618 -319.79865088 22.6316059 -318.54150391 23.35327148 C-315.31362852 25.20743067 -312.08810651 27.06563953 -308.86346436 28.92541504 C-306.00474796 30.57392183 -303.14481546 32.22031688 -300.28515625 33.8671875 C-294.92721891 36.95479176 -289.57207499 40.04720933 -284.21777344 43.14111328 C-279.89752357 45.63689344 -275.57577013 48.13006297 -271.25390625 50.62304688 C-268.00503504 52.49709563 -264.75642368 54.37159428 -261.5078125 56.24609375 C-257.14934612 58.76069436 -252.78987809 61.27354661 -248.4296875 63.78515625 C-237.72717251 69.95203292 -227.03745971 76.13908941 -216.375 82.375 C-209.50037515 86.39178594 -202.61825046 90.39316302 -195.6875 94.3125 C-195.04151855 94.67972168 -194.39553711 95.04694336 -193.72998047 95.42529297 C-189.28056492 97.92511542 -185.9128361 99.16367555 -180.8125 99.25 C-179.91144531 99.27578125 -179.01039063 99.3015625 -178.08203125 99.328125 C-169.8575113 98.45251071 -163.07536502 93.90818623 -156.125 89.75 C-153.97956714 88.48239487 -151.83371954 87.21549148 -149.6875 85.94921875 C-148.5840625 85.29614746 -147.480625 84.64307617 -146.34375 83.97021484 C-140.95882024 80.79728967 -135.54223251 77.67984796 -130.125 74.5625 C-127.94007548 73.3034352 -125.75517979 72.04432037 -123.5703125 70.78515625 C-122.48524414 70.16012207 -121.40017578 69.53508789 -120.28222656 68.89111328 C-114.85340058 65.76319852 -109.42680719 62.63141552 -104 59.5 C-101.83334417 58.24998121 -99.6666775 56.99998122 -97.5 55.75 C-96.4275 55.13125 -95.355 54.5125 -94.25 53.875 C-58.50000001 33.25 -58.50000001 33.25 -55.24658203 31.37304688 C-53.09128689 30.1295949 -50.93601327 28.88610564 -48.78076172 27.64257812 C-43.77662326 24.75537125 -38.7722948 21.8684957 -33.76715088 18.98303223 C-32.01658759 17.97380896 -30.26609589 16.96446164 -28.515625 15.95507812 C-26.33607835 14.6983234 -24.15640168 13.44179414 -21.9765625 12.18554688 C-20.47609375 11.32026367 -20.47609375 11.32026367 -18.9453125 10.4375 C-17.9749707 9.87804687 -17.00462891 9.31859375 -16.00488281 8.7421875 C-11.7557414 6.2785969 -7.52514078 3.78355988 -3.29638672 1.28515625 C-1 0 -1 0 0 0 Z " fill="#74AA9C" transform="translate(551,568)"/>
<path d="M0 0 C0.00219984 1.33267992 0.00219984 1.33267992 0.00444412 2.69228268 C0.04152159 24.32629593 0.10054889 45.96015264 0.18390274 67.59403896 C0.22368494 78.05610341 0.25608162 88.51809272 0.27099609 98.98022461 C0.28401682 108.10072569 0.31099234 117.2210614 0.35461307 126.34146935 C0.37721831 131.16914129 0.39291124 135.99660935 0.39188385 140.82433891 C0.39113669 145.3724749 0.40911 149.92016032 0.44116783 154.4681797 C0.44965561 156.13337523 0.45142439 157.79862137 0.44580269 159.46382904 C0.41674461 169.39771701 0.66040466 177.66849715 7.1875 185.6875 C14.04680715 191.32737477 21.63288665 195.51949369 29.38989258 199.77758789 C35.77847507 203.29319838 42.08521767 206.93590525 48.375 210.625 C57.21735335 215.8082278 66.09413559 220.92702381 75 226 C84.67500363 231.51229856 94.3128259 237.08424832 103.921875 242.7109375 C111.58574368 247.19166495 119.2869929 251.60470134 127 256 C144.78229903 266.13632861 162.49261004 276.39456185 180 287 C177.22262654 289.98885268 174.56071009 292.01050908 170.984375 293.9609375 C169.99163574 294.50830566 168.99889648 295.05567383 167.97607422 295.61962891 C166.37916748 296.4885376 166.37916748 296.4885376 164.75 297.375 C162.49636222 298.61791938 160.24378605 299.86276528 157.9921875 301.109375 C156.8381543 301.74810547 155.68412109 302.38683594 154.49511719 303.04492188 C146.94325143 307.25074475 139.50983413 311.66511896 132.0546875 316.0390625 C131.18038086 316.54598633 130.30607422 317.05291016 129.40527344 317.57519531 C127.89839847 318.46781837 126.40834812 319.39021453 124.94628906 320.35449219 C123.1328125 321.5234375 123.1328125 321.5234375 120 323 C116.53662793 321.92141201 113.47109796 320.23804756 110.32421875 318.453125 C109.42662842 317.94539551 108.52903809 317.43766602 107.60424805 316.91455078 C106.64172119 316.36524902 105.67919434 315.81594727 104.6875 315.25 C103.67276611 314.67362793 102.65803223 314.09725586 101.61254883 313.50341797 C92.4219122 308.26959599 83.28811786 302.93975958 74.16015625 297.59765625 C64.56057762 291.98321325 54.91864049 286.4419968 45.28222656 280.89111328 C38.7764039 277.1426677 32.27355917 273.38905819 25.77026367 269.63623047 C20.24262719 266.44671205 14.71400619 263.25892179 9.18359375 260.07421875 C3.74557803 256.9426947 -1.68737283 253.80250125 -7.11914062 250.66015625 C-9.72463037 249.15868758 -12.33718397 247.67065473 -14.953125 246.1875 C-29.85938644 237.68054713 -44.23795256 227.53122924 -55 214 C-55.80953125 213.20851563 -56.6190625 212.41703125 -57.453125 211.6015625 C-72.22616329 196.51131173 -79.71813048 174.95521505 -85 155 C-85.1870752 154.34950684 -85.37415039 153.69901367 -85.56689453 153.02880859 C-90.60112607 134.78608731 -89.2414042 113.26710033 -85 95 C-84.83902832 94.30245605 -84.67805664 93.60491211 -84.51220703 92.88623047 C-78.89387117 69.57634326 -66.65252045 49.12830675 -50 32 C-49.2575 31.195625 -48.515 30.39125 -47.75 29.5625 C-37.08302765 18.33410805 -16.32619931 0 0 0 Z " fill="#74AA9C" transform="translate(259,298)"/>
<path d="M0 0 C1.22746948 0.66660645 1.22746948 0.66660645 2.47973633 1.34667969 C3.23810791 1.74209961 3.99647949 2.13751953 4.77783203 2.54492188 C5.95478638 3.21249512 5.95478638 3.21249512 7.15551758 3.89355469 C8.05294678 4.40120361 8.95037598 4.90885254 9.875 5.43188477 C10.83768799 5.98126709 11.80037598 6.53064941 12.79223633 7.09667969 C13.80842041 7.67377686 14.82460449 8.25087402 15.87158203 8.84545898 C23.99677971 13.47193494 32.07537792 18.17650112 40.14306641 22.90234375 C47.89220194 27.43653838 55.67884412 31.90245183 63.47973633 36.34667969 C73.15037418 41.85671537 82.78522807 47.42403724 92.38842773 53.05102539 C98.96980507 56.900809 105.58197352 60.693826 112.21044922 64.46166992 C147.35763085 84.44077908 147.35763085 84.44077908 158.47973633 94.34667969 C159.38594727 95.13300781 160.2921582 95.91933594 161.22583008 96.72949219 C165.39668747 100.39790957 169.0195712 103.99980558 172.47973633 108.34667969 C173.28797852 109.13429688 174.0962207 109.92191406 174.92895508 110.73339844 C177.80072822 113.67553662 180.0339521 116.73817877 182.29223633 120.15917969 C182.93745239 121.13552368 182.93745239 121.13552368 183.59570312 122.1315918 C195.13592022 139.97383766 201.04697379 158.50267804 204.47973633 179.34667969 C204.77364258 181.09078125 204.77364258 181.09078125 205.07348633 182.87011719 C209.29930614 219.03338288 197.40100104 253.7519014 175.16723633 281.97167969 C160.48316386 299.30454281 142.30499794 314.85152757 120.47973633 322.34667969 C119.48973633 322.34667969 118.49973633 322.34667969 117.47973633 322.34667969 C117.47826977 321.4582264 117.47680321 320.56977312 117.47529221 319.65439701 C117.43821474 298.02038376 117.37918743 276.38652705 117.29583359 254.75264072 C117.25605139 244.29057628 117.22365471 233.82858697 117.20874023 223.36645508 C117.19571951 214.245954 117.16874399 205.12561828 117.12512326 196.00521034 C117.10251802 191.17753839 117.08682509 186.35007034 117.08785248 181.52234077 C117.08859964 176.97420479 117.07062632 172.42651936 117.0385685 167.87849998 C117.03008072 166.21330445 117.02831194 164.54805832 117.03393364 162.88285065 C117.06590304 151.95368853 116.49418626 142.62167005 108.47973633 134.34667969 C106.05505305 132.58159338 106.05505305 132.58159338 103.31567383 131.10449219 C102.28958008 130.52119141 101.26348633 129.93789063 100.20629883 129.33691406 C99.1002832 128.72138672 97.99426758 128.10585938 96.85473633 127.47167969 C95.68745362 126.81196121 94.5207975 126.15113297 93.35473633 125.48925781 C90.93363503 124.11613654 88.5099173 122.74781219 86.08422852 121.3828125 C80.52382155 118.24858887 75.00402482 115.04397644 69.47973633 111.84667969 C67.31325966 110.59635041 65.14659235 109.34635141 62.97973633 108.09667969 C41.31306966 95.59667969 19.64640299 83.09667969 -2.02026367 70.59667969 C-3.63034302 69.66782959 -3.63034302 69.66782959 -5.27294922 68.72021484 C-7.4307617 67.47526687 -9.5884772 66.23015079 -11.74609375 64.98486328 C-17.2974296 61.78115318 -22.85062909 58.58074339 -28.40698242 55.38574219 C-39.84059326 48.80746687 -51.25325756 42.20728242 -62.52026367 35.34667969 C-60.12056686 32.69102181 -57.55582178 31.06669416 -54.45385742 29.29980469 C-52.90734497 28.41373535 -52.90734497 28.41373535 -51.32958984 27.50976562 C-50.21688721 26.87844727 -49.10418457 26.24712891 -47.95776367 25.59667969 C-46.20965299 24.59677465 -44.46154659 23.59686204 -42.71369934 22.59649658 C-40.88766891 21.55214979 -39.06048612 20.50984119 -37.2331543 19.46777344 C-31.21259838 16.0317556 -25.21127339 12.56235957 -19.20776367 9.09667969 C-18.11197998 8.46536133 -17.01619629 7.83404297 -15.88720703 7.18359375 C-14.86248291 6.59288086 -13.83775879 6.00216797 -12.78198242 5.39355469 C-11.88439209 4.87631836 -10.98680176 4.35908203 -10.06201172 3.82617188 C-7.4708306 2.37330887 -7.4708306 2.37330887 -5.00390625 0.53125 C-2.52026367 -0.65332031 -2.52026367 -0.65332031 0 0 Z " fill="#74AA9C" transform="translate(583.520263671875,339.6533203125)"/>
<path d="M0 0 C1.6783352 1.65491586 3.3464929 3.32027687 5 5 C4.2879541 5.40613525 3.5759082 5.81227051 2.84228516 6.23071289 C-13.39045455 15.49191534 -29.60059805 24.7907986 -45.78222656 34.14111328 C-51.18670645 37.26324605 -56.59347412 40.38141204 -62 43.5 C-64.1666775 44.74998122 -66.33334417 45.99998121 -68.5 47.25 C-81.5 54.75 -81.5 54.75 -84.75219727 56.6262207 C-86.91159395 57.8720577 -89.07093669 59.11798818 -91.23022461 60.36401367 C-96.75767597 63.55348953 -102.28615121 66.74116885 -107.81640625 69.92578125 C-114.2145974 73.61087071 -120.60847574 77.30336155 -127 81 C-127.89267578 81.51530273 -128.78535156 82.03060547 -129.70507812 82.56152344 C-132.07684587 83.93238688 -134.44528816 85.30878844 -136.8125 86.6875 C-137.481604 87.07333252 -138.15070801 87.45916504 -138.84008789 87.85668945 C-146.32317169 92.16510255 -146.32317169 92.16510255 -151.25 99 C-151.72179687 99.99 -151.72179687 99.99 -152.203125 101 C-154.0511257 105.63811941 -154.15180183 110.00784629 -154.15821838 114.9598999 C-154.16315636 115.76777742 -154.16809434 116.57565493 -154.17318195 117.40801358 C-154.18855349 120.11803563 -154.19691666 122.82803399 -154.20532227 125.53808594 C-154.21490106 127.47954009 -154.22491114 129.42099215 -154.23532104 131.36244202 C-154.26237604 136.636817 -154.28338241 141.91120093 -154.30332303 147.18560696 C-154.32517889 152.69628471 -154.35256954 158.20693485 -154.37937927 163.71759033 C-154.42931155 174.15452758 -154.47424841 184.59148015 -154.51740164 195.02844739 C-154.56676942 206.90983173 -154.62168926 218.79118836 -154.67708123 230.67254591 C-154.7909095 255.11500476 -154.89774672 279.55749018 -155 304 C-158.53064211 302.61572638 -161.80355979 301.09020174 -165.11328125 299.234375 C-166.10279785 298.68056152 -167.09231445 298.12674805 -168.11181641 297.55615234 C-169.16804199 296.96012207 -170.22426758 296.3640918 -171.3125 295.75 C-172.95484619 294.82695068 -172.95484619 294.82695068 -174.63037109 293.88525391 C-185.28634431 287.87649866 -195.85572222 281.72131928 -206.39892578 275.51708984 C-208.48120543 274.30258959 -210.56912666 273.10022761 -212.66256714 271.90518188 C-214.31459641 270.96211685 -214.31459641 270.96211685 -216 270 C-216.07026272 247.45918804 -216.12307245 224.91839429 -216.15543652 202.37749481 C-216.17086703 191.90999172 -216.19188311 181.44255691 -216.22631836 170.97509766 C-216.25633805 161.84545896 -216.27560269 152.71586975 -216.28226548 143.58618307 C-216.28615656 138.75771549 -216.29522045 133.92938939 -216.31719017 129.10096741 C-216.33775452 124.54391812 -216.34379408 119.9870668 -216.33932304 115.42997551 C-216.34013942 113.76930091 -216.34598507 112.10861876 -216.35761642 110.4479847 C-216.45756693 95.42395634 -214.0404952 81.50177734 -210 67 C-209.76023437 66.09636719 -209.52046875 65.19273437 -209.2734375 64.26171875 C-200.77773775 35.55895744 -179.15398677 9.72209917 -154 -6 C-153.38721191 -6.38736328 -152.77442383 -6.77472656 -152.14306641 -7.17382812 C-138.35063224 -15.75830137 -122.97181956 -21.90164156 -107 -25 C-105.95328125 -25.20367187 -104.9065625 -25.40734375 -103.828125 -25.6171875 C-68.10026754 -31.62671191 -28.80604987 -22.10081315 0 0 Z " fill="#74AA9C" transform="translate(523,193)"/>
<path d="M0 0 C3.53064211 1.38427362 6.80355979 2.90979826 10.11328125 4.765625 C11.10279785 5.31943848 12.09231445 5.87325195 13.11181641 6.44384766 C14.16804199 7.03987793 15.22426758 7.6359082 16.3125 8.25 C17.40739746 8.86536621 18.50229492 9.48073242 19.63037109 10.11474609 C30.28634431 16.12350134 40.85572222 22.27868072 51.39892578 28.48291016 C53.48120543 29.69741041 55.56912666 30.89977239 57.66256714 32.09481812 C58.76391998 32.72352814 59.86527283 33.35223816 61 34 C61.04683129 56.29732779 61.08204321 78.59464741 61.10362434 100.8920145 C61.11391355 111.24630444 61.12792859 121.60056373 61.15087891 131.95483398 C61.17088517 140.98521332 61.18373354 150.01557045 61.18817699 159.04597133 C61.19077217 163.82239372 61.19682228 168.59875258 61.21146011 173.3751545 C61.22515868 177.88210472 61.22919816 182.38896599 61.22621536 186.89593506 C61.22676009 188.53928551 61.23066374 190.18263932 61.23841095 191.8259716 C61.30313259 206.27855733 60.06161108 219.94712414 55.875 233.875 C55.57005615 234.89948242 55.2651123 235.92396484 54.95092773 236.97949219 C50.66783754 250.8704781 44.63468564 263.27050624 36 275 C35.42121094 275.80179688 34.84242188 276.60359375 34.24609375 277.4296875 C12.6892912 305.83065847 -18.9965881 324.3788691 -54.1875 329.9375 C-90.03469705 334.79879129 -125.81788872 325.24762874 -155 304 C-156.68249078 302.34930914 -158.35152563 300.68466252 -160 299 C-159.2879541 298.59386475 -158.5759082 298.18772949 -157.84228516 297.76928711 C-141.60954545 288.50808466 -125.39940195 279.2092014 -109.21777344 269.85888672 C-103.81329355 266.73675395 -98.40652588 263.61858796 -93 260.5 C-90.8333225 259.25001878 -88.66665583 258.00001879 -86.5 256.75 C-73.5 249.25 -73.5 249.25 -70.24780273 247.3737793 C-68.08840605 246.1279423 -65.92906331 244.88201182 -63.76977539 243.63598633 C-58.24232403 240.44651047 -52.71384879 237.25883115 -47.18359375 234.07421875 C-41.75761543 230.94947317 -36.33596573 227.81731647 -30.91601562 224.68212891 C-28.2036274 223.11746423 -25.48550498 221.56331052 -22.765625 220.01171875 C-21.23941039 219.13311285 -19.71335557 218.2542293 -18.1875 217.375 C-17.518396 216.99754639 -16.84929199 216.62009277 -16.15991211 216.23120117 C-9.15989762 212.17143077 -4.09306615 206.99601169 -1.40051365 199.28264999 C-0.80323165 195.87855686 -0.84624551 192.48516536 -0.84178162 189.0401001 C-0.83684364 188.23222258 -0.83190566 187.42434507 -0.82681805 186.59198642 C-0.81144651 183.88196437 -0.80308334 181.17196601 -0.79467773 178.46191406 C-0.78509894 176.52045991 -0.77508886 174.57900785 -0.76467896 172.63755798 C-0.73762396 167.363183 -0.71661759 162.08879907 -0.69667697 156.81439304 C-0.67482111 151.30371529 -0.64743046 145.79306515 -0.62062073 140.28240967 C-0.57068845 129.84547242 -0.52575159 119.40851985 -0.48259836 108.97155261 C-0.43323058 97.09016827 -0.37831074 85.20881164 -0.32291877 73.32745409 C-0.2090905 48.88499524 -0.10225328 24.44250982 0 0 Z " fill="#74AA9C" transform="translate(592,463)"/>
<path d="M0 0 C2.51031769 1.30143198 4.85695656 2.63646218 7.25 4.125 C8.76340695 5.04057826 10.27779574 5.95453484 11.79296875 6.8671875 C13.03506104 7.61887207 13.03506104 7.61887207 14.30224609 8.38574219 C19.3505797 11.40651882 24.46068644 14.32078402 29.5625 17.25 C32.69371239 19.04927876 35.80069779 20.84986531 38.86181641 22.76708984 C42.16444692 24.71277857 45.50363443 25.88157507 49.13427734 27.09619141 C56.28149408 29.81951084 62.45234439 32.6416846 67 39 C71.44345274 51.20416478 69.34614339 66.20878938 68.64794922 78.9005127 C68.40063852 83.87264121 68.29246253 88.84769014 68.171875 93.82421875 C67.91584149 103.55719004 67.50738604 113.27711428 67 123 C62.94926437 125.33731866 58.89848034 127.67455341 54.84765625 130.01171875 C54.24978868 130.35666571 53.65192112 130.70161266 53.03593636 131.05701256 C46.48215847 134.83821752 39.9280783 138.61888858 33.37109375 142.39453125 C32.36780029 142.97267578 31.36450684 143.55082031 30.33081055 144.14648438 C28.29284288 145.31997956 26.25384732 146.49169054 24.21411133 147.66210938 C19.36204609 150.45253287 14.5321989 153.26473918 9.765625 156.19921875 C8.9826001 156.67705811 8.1995752 157.15489746 7.39282227 157.6472168 C5.97401274 158.51753934 4.56232816 159.39964326 3.15991211 160.29614258 C0.56826945 161.88054554 -1.38255842 162.9970598 -4.4609375 163.01171875 C-8.09069429 161.56540027 -11.42461306 159.75247218 -14.8125 157.8125 C-15.98232422 157.15254028 -15.98232422 157.15254028 -17.17578125 156.47924805 C-27.84780989 150.43141776 -38.41259461 144.19363215 -49 138 C-57.58 133.05 -66.16 128.1 -75 123 C-75 95.28 -75 67.56 -75 39 C-44.29877488 21.28775474 -44.29877488 21.28775474 -32.56756592 14.63552856 C-24.26398259 9.9254257 -24.26398259 9.9254257 -16.11328125 4.95703125 C-15.42129639 4.52245605 -14.72931152 4.08788086 -14.01635742 3.64013672 C-12.29493919 2.54555737 -10.58801156 1.42827265 -8.8828125 0.30859375 C-5.26064895 -1.33561328 -3.77413475 -1.19562284 0 0 Z " fill="#74AA9C" transform="translate(484,399)"/>
</svg>
